<svg width="106" height="38" viewBox="0 0 106 38" fill="none" xmlns="http://www.w3.org/2000/svg">
    <g clip-path="url(#clip0_1_730)">
        <g clip-path="url(#clip1_1_730)">
            <g clip-path="url(#clip2_1_730)">
                <path d="M29.3781 0.00488281H19.9411V9.50488H29.3781V0.00488281ZM54.2281 12.7899V29.2969H51.2001V27.9109C50.3751 28.9799 49.0771 29.6129 47.3861 29.6129C44.2801 29.6129 41.6851 26.8829 41.6851 23.3989C41.6851 19.9149 44.2801 17.1839 47.3861 17.1839C49.0771 17.1839 50.3751 17.8569 51.2001 18.8859V12.7899H54.2281ZM51.2401 23.3989C51.2401 21.4189 49.8631 20.0739 47.9761 20.0739C46.1281 20.0739 44.7521 21.4199 44.7521 23.3989C44.7521 25.3779 46.1281 26.7239 47.9761 26.7239C49.8241 26.7239 51.2401 25.3779 51.2401 23.3989ZM62.6821 27.1199C63.7431 27.1199 64.6871 26.6049 65.0801 25.9319L68.0681 25.8919C67.3611 28.2669 65.2771 29.6129 62.6421 29.6129C58.8281 29.6129 56.3521 26.8829 56.3521 23.3989C56.3521 19.9149 58.8681 17.1839 62.5641 17.1839C66.0241 17.1839 68.3831 19.9549 68.3831 23.3989C68.3831 23.8339 68.3431 24.2299 68.2651 24.6649H59.4971C59.9291 26.3279 61.1871 27.1199 62.6821 27.1199ZM65.4341 22.2499C65.0801 20.5489 63.8611 19.8759 62.6031 19.8759C60.9911 19.8759 59.8901 20.7459 59.5361 22.2509L65.4341 22.2499ZM80.3751 17.5009L76.0901 29.2969H73.0231L68.7761 17.5009H72.0001L74.5951 25.5359L77.1911 17.5009H80.3751ZM88.9081 29.2969L84.8181 23.9529V29.2969H81.7911V12.7899H84.8191V22.6859L88.6721 17.5009H92.1721L87.7281 23.3199L92.4081 29.2969H88.9081ZM105.068 17.5009V28.7429C105.068 32.6219 102.001 34.3629 99.0521 34.3629C96.0251 34.3629 93.2321 32.7009 93.2321 29.6529H96.2601C96.2601 30.6829 97.2431 31.6719 99.0521 31.6719C100.939 31.6719 102.08 30.6419 102.08 28.7819V27.5149C101.254 28.6239 99.9561 29.2969 98.1871 29.2969C95.0811 29.2969 92.4861 26.6049 92.4861 23.2399C92.4861 19.9149 95.0811 17.1839 98.1871 17.1839C99.9571 17.1839 101.215 17.8569 102.08 18.9649V17.5009H105.068ZM102.119 23.2009C102.119 21.3409 100.743 19.9949 98.8551 19.9949C96.9681 19.9949 95.5921 21.3399 95.5921 23.2009C95.5921 25.1009 96.9681 26.4469 98.8551 26.4469C100.743 26.4469 102.119 25.1009 102.119 23.2009Z" fill="white"/>
                <path d="M19.9481 14.2649H5.76813V33.2549H19.9681C21.2146 33.2549 22.4101 32.7597 23.2915 31.8783C24.173 30.9969 24.6681 29.8014 24.6681 28.5549V19.0049" stroke="white" stroke-width="9.48"/>
            </g>
        </g>
    </g>
    <defs>
        <clipPath id="clip0_1_730">
            <rect width="105" height="38" fill="white" transform="translate(0.0681152 0.00488281)"/>
        </clipPath>
        <clipPath id="clip1_1_730">
            <rect width="105" height="38" fill="white" transform="translate(0.0681152 0.00488281)"/>
        </clipPath>
        <clipPath id="clip2_1_730">
            <rect width="105" height="38" fill="white" transform="translate(0.0681152 0.00488281)"/>
        </clipPath>
    </defs>
</svg>
